# xmcd
#
# Track frame offsets:
#	150
#	17792
#	34382
#	52562
#	70562
#	88287
#	102240
#	117570
#	131495
#	150647
#
# Disc length: 2142 seconds
#
# Revision: 0
# Processed by: cddbd v1.5.2PL0 Copyright (c) Steve Scherf et al.
# Submitted via: dBpowerAMP V4.0
#
DISCID=7d085c0a
DTITLE=Collin Raye - Love, Me
DYEAR=2003
DGENRE=Country
TTITLE0=Love, Me
TTITLE1=Any Old Stretch Of Blacktop
TTITLE2=Latter Day Cowboys
TTITLE3=Dreaming My Dreams With You
TTITLE4=Heart Full Of Rain
TTITLE5=That's My Story
TTITLE6=April Fool
TTITLE7=Blue Magic
TTITLE8=Make Sure You've Got It All
TTITLE9=Sweet Miss Behavin'
EXTD=
EXTT0=
EXTT1=
EXTT2=
EXTT3=
EXTT4=
EXTT5=
EXTT6=
EXTT7=
EXTT8=
EXTT9=
PLAYORDER=
